<svg viewBox="0 0 52 52" xmlns="http://www.w3.org/2000/svg"><g fill="none" fill-rule="evenodd"><rect fill="#EDEDED" width="52" height="52" rx="5"/><path d="M19.18 6.695c-5.088 1.7-9.424 5.423-11.84 10.133a19.963 19.963 0 0 0-1.82 5.138 20.081 20.081 0 0 0 1.81 13.207 20.719 20.719 0 0 0 5.673 6.817 21 21 0 0 0 7.594 3.744c3.482.91 7.19.89 10.694.11 3.17-.714 6.17-2.196 8.56-4.348 2.53-2.272 4.34-5.258 5.3-8.475 1.05-3.5 1.18-7.24.53-10.84H26.01v7.97h11.392c-.438 2.55-1.988 4.88-4.18 6.32-1.38.91-2.964 1.5-4.605 1.78-1.64.28-3.347.31-4.987-.01a12.594 12.594 0 0 1-4.65-1.96 12.632 12.632 0 0 1-4.787-6.27c-.887-2.554-.898-5.4 0-7.945.63-1.8 1.663-3.46 3.034-4.82a12.465 12.465 0 0 1 6.245-3.39 12.712 12.712 0 0 1 6.134.24 11.32 11.32 0 0 1 4.505 2.59l3.85-3.754c.68-.67 1.38-1.32 2.04-2.01a20.391 20.391 0 0 0-6.73-4.075c-4.49-1.625-9.55-1.657-14.07-.13z" fill="#FFF"/><path d="M26.01 22.163h19.66c.652 3.59.506 7.334-.528 10.847-.955 3.217-2.763 6.203-5.29 8.475l-6.64-5.04c2.19-1.437 3.74-3.764 4.18-6.31H26c.01-2.658.01-5.315.01-7.972z" fill="#4285F4"/><path d="M19.18 6.695c4.517-1.526 9.583-1.494 14.077.12 2.494.9 4.774 2.306 6.73 4.073-.653.692-1.36 1.34-2.034 2.01L34.11 16.65a11.43 11.43 0 0 0-4.504-2.59 12.602 12.602 0 0 0-6.134-.242c-2.36.494-4.55 1.7-6.245 3.392a12.636 12.636 0 0 0-3.034 4.82c-2.28-1.735-4.56-3.46-6.852-5.193 2.42-4.722 6.76-8.444 11.84-10.145z" fill="#EA4335"/><path d="M5.532 21.955a20.02 20.02 0 0 1 1.82-5.138c2.28 1.734 4.56 3.458 6.853 5.192-.9 2.55-.9 5.4 0 7.94-2.28 1.73-4.56 3.47-6.842 5.19-2.112-4.03-2.752-8.76-1.83-13.2z" fill="#FBBC05"/><path d="M7.34 35.162c2.28-1.724 4.562-3.46 6.842-5.193a12.68 12.68 0 0 0 4.786 6.26c1.393.95 2.988 1.63 4.65 1.96 1.64.33 3.337.28 4.988.01 1.64-.29 3.224-.87 4.606-1.78l6.64 5.04c-2.394 2.16-5.393 3.63-8.56 4.34-3.506.78-7.213.8-10.695-.11a20.817 20.817 0 0 1-7.594-3.744 20.645 20.645 0 0 1-5.663-6.804z" fill="#34A853"/></g></svg>