<svg viewBox="0 0 52 52" xmlns="http://www.w3.org/2000/svg"><g fill="none" fill-rule="evenodd"><path d="M0 47.273V4.503A4.506 4.506 0 0 1 4.504 0h42.77L0 47.273z" fill="#1EA461"/><path fill="#5384C4" d="M4.727 52L26.57 30.727 48.415 52H4.727"/><path fill="#C3C1C1" d="M52 47.273L30.727 26 52 4.726v42.546"/><path d="M46.73 52L26 31.268 31.27 26 52 46.732v.875A4.395 4.395 0 0 1 47.606 52h-.875z" fill="#FEFEFE"/><path d="M0 47.554v-.886L46.667 0h.886A4.448 4.448 0 0 1 52 4.446v.887L5.332 52h-.886A4.447 4.447 0 0 1 0 47.554z" fill="#FEDB43"/><path d="M8.998 5.35c2.566-1.15 5.776-.68 7.86 1.2-.652.65-1.32 1.286-1.99 1.918-2.085-2.025-6-1.064-6.978 1.614-1.277 2.635.846 6.1 3.85 6.137 1.965.22 3.925-1.07 4.34-2.98-1.373 0-2.744-.01-4.114.01a35.65 35.65 0 0 1-.026-2.49c2.293.06 4.643-.13 6.902.09.172 1.64.054 3.38-.848 4.82-1.414 2.57-4.753 3.7-7.58 3.05-3.492-.71-6.107-4.22-5.63-7.69.244-2.45 1.937-4.67 4.214-5.69z" fill="#EFEEEE"/><path d="M38.215 0h1.514c3.77.212 7.46 2.02 9.74 4.993 1.5 1.877 2.33 4.21 2.52 6.577v.88c-.09 4.59-3.088 8.357-5.68 11.927-2.914 4.034-5.605 8.43-6.35 13.403-.2.842.04 2.02-.987 2.402-.24-.185-.52-.337-.69-.595-.306-2.78-1.014-5.525-2.224-8.064-1.37-2.957-3.28-5.63-5.223-8.246-1.183-1.568-2.297-3.192-3 22-4.922-1.45-2.593-1.986-5.658-1.394-8.567.485-2.297 1.71-4.426 3.41-6.072z" fill="#DC4A3D"/><path d="M37.758 7.455c2.184-.582 4.682.667 5.524 2.86.71 1.75.215 3.915-1.146 5.168-1.46 1.39-3.75 1.684-5.498.723-1.61-.826-2.662-2.724-2.466-4.593.157-2.01 1.722-3.725 3.586-4.158z" fill="#7F2B27"/></g></svg>